# Blender 4.0.2
# www.blender.org
mtllib starkonustetrahedron.mtl
o Solid
v 0.000000 2.500000 -0.000000
v 0.942809 1.166667 0.000000
v -0.471405 1.166667 -0.816497
v -0.471405 1.166667 0.816497
vn 0.4714 0.3333 -0.8165
vn -0.9428 0.3333 -0.0000
vn 0.4714 0.3333 0.8165
vn -0.0000 -1.0000 -0.0000
s 0
f 1//1 2//1 3//1
f 1//2 3//2 4//2
f 1//3 4//3 2//3
f 2//4 4//4 3//4
o Окружность
v 0.000000 -0.000000 -2.000312
v -1.902410 -0.000000 -0.618130
v -1.175754 0.000000 1.618286
v 1.175754 0.000000 1.618286
v 1.902410 -0.000000 -0.618130
v -0.475528 -0.000000 -0.654508
v -0.769421 0.000000 0.250000
v 0.000000 0.000000 0.809017
v 0.769421 0.000000 0.250000
v 0.475528 -0.000000 -0.654508
v 0.000000 0.000000 0.000000
v 0.000000 1.000000 -2.000312
v -1.902410 1.000000 -0.618130
v -1.175754 1.000000 1.618286
v 1.175754 1.000000 1.618286
v 1.902410 1.000000 -0.618130
v -0.475528 1.000000 -0.654508
v -0.769421 1.000000 0.250000
v 0.000000 1.000000 0.809017
v 0.769421 1.000000 0.250000
v 0.475528 1.000000 -0.654508
v 0.000000 1.000000 -0.000000
vn -0.0000 -1.0000 -0.0000
vn -0.0000 1.0000 -0.0000
vn -0.9586 -0.0000 -0.2847
vn 0.9586 -0.0000 -0.2847
vn -0.9429 -0.0000 -0.3332
vn -0.5670 -0.0000 0.8237
vn 0.0255 -0.0000 -0.9997
vn -0.6082 -0.0000 0.7938
vn 0.6082 -0.0000 0.7938
vn -0.0255 -0.0000 -0.9997
vn 0.5670 -0.0000 0.8237
vn 0.9429 -0.0000 -0.3332
vt 0.000000 0.000000
s 0
f 10/1/5 15/1/5 6/1/5
f 6/1/5 15/1/5 11/1/5
f 11/1/5 15/1/5 7/1/5
f 7/1/5 15/1/5 12/1/5
f 12/1/5 15/1/5 8/1/5
f 8/1/5 15/1/5 13/1/5
f 13/1/5 15/1/5 9/1/5
f 9/1/5 15/1/5 14/1/5
f 14/1/5 15/1/5 5/1/5
f 5/1/5 15/1/5 10/1/5
f 21/1/6 17/1/6 26/1/6
f 17/1/6 22/1/6 26/1/6
f 22/1/6 18/1/6 26/1/6
f 18/1/6 23/1/6 26/1/6
f 23/1/6 19/1/6 26/1/6
f 19/1/6 24/1/6 26/1/6
f 24/1/6 20/1/6 26/1/6
f 20/1/6 25/1/6 26/1/6
f 25/1/6 16/1/6 26/1/6
f 16/1/6 21/1/6 26/1/6
f 11/1/7 18/1/7 22/1/7
f 8/1/8 13/1/8 19/1/8
f 5/1/9 10/1/9 16/1/9
f 12/1/10 19/1/10 23/1/10
f 9/1/11 14/1/11 20/1/11
f 6/1/12 11/1/12 17/1/12
f 13/1/13 20/1/13 24/1/13
f 10/1/14 17/1/14 21/1/14
f 7/1/15 12/1/15 18/1/15
f 14/1/16 5/1/16 16/1/16
f 20/1/13 13/1/13 9/1/13
f 19/1/10 12/1/10 8/1/10
f 18/1/7 11/1/7 7/1/7
f 17/1/14 10/1/14 6/1/14
f 20/1/11 14/1/11 25/1/11
f 19/1/8 13/1/8 24/1/8
f 18/1/15 12/1/15 23/1/15
f 17/1/12 11/1/12 22/1/12
f 16/1/9 10/1/9 21/1/9
f 16/1/16 25/1/16 14/1/16
o Конус
v 0.000000 -1.000000 -4.000000
v 0.195090 -1.000000 -3.980785
v 0.382683 -1.000000 -3.923880
v 0.555570 -1.000000 -3.831470
v 0.707107 -1.000000 -3.707107
v 0.831470 -1.000000 -3.555570
v 0.923880 -1.000000 -3.382683
v 0.980785 -1.000000 -3.195090
v 1.000000 -1.000000 -3.000000
v 0.980785 -1.000000 -2.804910
v 0.923880 -1.000000 -2.617317
v 0.831470 -1.000000 -2.444430
v 0.707107 -1.000000 -2.292893
v 0.555570 -1.000000 -2.168530
v 0.382683 -1.000000 -2.076120
v 0.195090 -1.000000 -2.019215
v 0.000000 -1.000000 -2.000000
v -0.195090 -1.000000 -2.019215
v -0.382683 -1.000000 -2.076120
v -0.555570 -1.000000 -2.168530
v -0.707107 -1.000000 -2.292893
v -0.831470 -1.000000 -2.444430
v -0.923880 -1.000000 -2.617317
v -0.980785 -1.000000 -2.804910
v -1.000000 -1.000000 -3.000000
v -0.980785 -1.000000 -3.195090
v -0.923880 -1.000000 -3.382683
v -0.831470 -1.000000 -3.555570
v -0.707107 -1.000000 -3.707107
v -0.555570 -1.000000 -3.831470
v -0.382683 -1.000000 -3.923880
v -0.195090 -1.000000 -3.980785
v 0.000000 1.000000 -3.000000
vn 0.0878 0.4455 -0.8910
vn 0.2599 0.4455 -0.8567
vn 0.4220 0.4455 -0.7896
vn 0.5680 0.4455 -0.6921
vn 0.6921 0.4455 -0.5680
vn 0.7896 0.4455 -0.4220
vn 0.8567 0.4455 -0.2599
vn 0.8910 0.4455 -0.0878
vn 0.8910 0.4455 0.0878
vn 0.8567 0.4455 0.2599
vn 0.7896 0.4455 0.4220
vn 0.6921 0.4455 0.5680
vn 0.5680 0.4455 0.6921
vn 0.4220 0.4455 0.7896
vn 0.2599 0.4455 0.8567
vn 0.0878 0.4455 0.8910
vn -0.0878 0.4455 0.8910
vn -0.2599 0.4455 0.8567
vn -0.4220 0.4455 0.7896
vn -0.5680 0.4455 0.6921
vn -0.6921 0.4455 0.5680
vn -0.7896 0.4455 0.4220
vn -0.8567 0.4455 0.2599
vn -0.8910 0.4455 0.0878
vn -0.8910 0.4455 -0.0878
vn -0.8567 0.4455 -0.2599
vn -0.7896 0.4455 -0.4220
vn -0.6921 0.4455 -0.5680
vn -0.5680 0.4455 -0.6921
vn -0.4220 0.4455 -0.7896
vn -0.0000 -1.0000 -0.0000
vn -0.2599 0.4455 -0.8567
vn -0.0878 0.4455 -0.8910
vt 0.250000 0.490000
vt 0.250000 0.250000
vt 0.296822 0.485388
vt 0.341844 0.471731
vt 0.383337 0.449553
vt 0.419706 0.419706
vt 0.449553 0.383337
vt 0.471731 0.341844
vt 0.485388 0.296822
vt 0.490000 0.250000
vt 0.485388 0.203178
vt 0.471731 0.158156
vt 0.449553 0.116663
vt 0.419706 0.080294
vt 0.383337 0.050447
vt 0.341844 0.028269
vt 0.296822 0.014612
vt 0.250000 0.010000
vt 0.203178 0.014612
vt 0.158156 0.028269
vt 0.116663 0.050447
vt 0.080294 0.080294
vt 0.050447 0.116663
vt 0.028269 0.158156
vt 0.014612 0.203178
vt 0.010000 0.250000
vt 0.014612 0.296822
vt 0.028269 0.341844
vt 0.050447 0.383337
vt 0.080294 0.419706
vt 0.116663 0.449553
vt 0.158156 0.471731
vt 0.750000 0.490000
vt 0.990000 0.250000
vt 0.703178 0.485388
vt 0.203178 0.485388
vt 0.985388 0.203178
vt 0.658156 0.471731
vt 0.971731 0.158156
vt 0.616663 0.449553
vt 0.949553 0.116663
vt 0.580294 0.419706
vt 0.919706 0.080294
vt 0.550447 0.383337
vt 0.883337 0.050447
vt 0.528269 0.341844
vt 0.841844 0.028269
vt 0.514612 0.296822
vt 0.796822 0.014612
vt 0.510000 0.250000
vt 0.750000 0.010000
vt 0.514612 0.203178
vt 0.703178 0.014612
vt 0.528269 0.158156
vt 0.658156 0.028269
vt 0.550447 0.116663
vt 0.616663 0.050447
vt 0.580294 0.080294
vt 0.985388 0.296822
vt 0.796822 0.485388
vt 0.971731 0.341844
vt 0.841844 0.471731
vt 0.949553 0.383337
vt 0.883337 0.449553
vt 0.919706 0.419706
s 0
f 27/2/17 59/3/17 28/4/17
f 28/4/18 59/3/18 29/5/18
f 29/5/19 59/3/19 30/6/19
f 30/6/20 59/3/20 31/7/20
f 31/7/21 59/3/21 32/8/21
f 32/8/22 59/3/22 33/9/22
f 33/9/23 59/3/23 34/10/23
f 34/10/24 59/3/24 35/11/24
f 35/11/25 59/3/25 36/12/25
f 36/12/26 59/3/26 37/13/26
f 37/13/27 59/3/27 38/14/27
f 38/14/28 59/3/28 39/15/28
f 39/15/29 59/3/29 40/16/29
f 40/16/30 59/3/30 41/17/30
f 41/17/31 59/3/31 42/18/31
f 42/18/32 59/3/32 43/19/32
f 43/19/33 59/3/33 44/20/33
f 44/20/34 59/3/34 45/21/34
f 45/21/35 59/3/35 46/22/35
f 46/22/36 59/3/36 47/23/36
f 47/23/37 59/3/37 48/24/37
f 48/24/38 59/3/38 49/25/38
f 49/25/39 59/3/39 50/26/39
f 50/26/40 59/3/40 51/27/40
f 51/27/41 59/3/41 52/28/41
f 52/28/42 59/3/42 53/29/42
f 53/29/43 59/3/43 54/30/43
f 54/30/44 59/3/44 55/31/44
f 55/31/45 59/3/45 56/32/45
f 56/32/46 59/3/46 57/33/46
f 27/34/47 35/35/47 58/36/47
f 57/33/48 59/3/48 58/37/48
f 58/37/49 59/3/49 27/2/49
f 58/36/47 36/38/47 57/39/47
f 57/39/47 37/40/47 56/41/47
f 56/41/47 38/42/47 55/43/47
f 55/43/47 39/44/47 54/45/47
f 54/45/47 40/46/47 53/47/47
f 53/47/47 41/48/47 52/49/47
f 52/49/47 42/50/47 51/51/47
f 51/51/47 43/52/47 50/53/47
f 50/53/47 44/54/47 49/55/47
f 49/55/47 45/56/47 48/57/47
f 48/57/47 46/58/47 47/59/47
f 46/58/47 48/57/47 45/56/47
f 45/56/47 49/55/47 44/54/47
f 44/54/47 50/53/47 43/52/47
f 43/52/47 51/51/47 42/50/47
f 42/50/47 52/49/47 41/48/47
f 41/48/47 53/47/47 40/46/47
f 40/46/47 54/45/47 39/44/47
f 39/44/47 55/43/47 38/42/47
f 38/42/47 56/41/47 37/40/47
f 37/40/47 57/39/47 36/38/47
f 36/38/47 58/36/47 35/35/47
f 35/35/47 27/34/47 34/60/47
f 34/60/47 28/61/47 33/62/47
f 33/62/47 29/63/47 32/64/47
f 32/64/47 30/65/47 31/66/47
f 30/65/47 32/64/47 29/63/47
f 29/63/47 33/62/47 28/61/47
f 28/61/47 34/60/47 27/34/47
